<?xml version="1.0" encoding="UTF-8" standalone="no" ?>
<!DOCTYPE svg PUBLIC "-//W3C//DTD SVG 1.1//EN" "http://www.w3.org/Graphics/SVG/1.1/DTD/svg11.dtd">
<svg xmlns="http://www.w3.org/2000/svg" xmlns:xlink="http://www.w3.org/1999/xlink" version="1.1" width="64" height="64" viewBox="0 0 640 640" xml:space="preserve">
<desc>Created with Fabric.js 4.6.0</desc>
<defs>
</defs>
<g transform="matrix(1 0 0 1 341.17 100.41)" id="2T5XQZmWXmZmyy8KQa3j3"  >
<path style="fill: #fab00c; fill-opacity: 0; fill-rule: nonzero; opacity: 1;" vector-effect="non-scaling-stroke"  transform=" translate(0, 0)" d="M 0 0" stroke-linecap="round" />
</g>
<g transform="matrix(1 0 0 1 220 380)" id="Q80bbRAhqaRac93wsvXq1"  >
<path style="fill: #fab00c; fill-opacity: 0; fill-rule: nonzero; opacity: 1;" vector-effect="non-scaling-stroke"  transform=" translate(0, 0)" d="M 0 0" stroke-linecap="round" />
</g>
<g transform="matrix(1 0 0 1 242.09 398.42)" id="j0Yk0UJXMZMrWfRebu_Ox"  >
<path style="fill: #fab00c; fill-opacity: 0; fill-rule: nonzero; opacity: 1;" vector-effect="non-scaling-stroke"  transform=" translate(0, 0)" d="M -2.09178 -1.57951 L 2.09178 1.57951" stroke-linecap="round" />
</g>
<g transform="matrix(1 0 0 1 410 230)" id="XAEs4R5lCGxFyGAVuB4_t"  >
<path style="fill: #fab00c; fill-rule: nonzero; opacity: 1;" vector-effect="non-scaling-stroke"  transform=" translate(0, 0)" d="M -210 170 L -170 210 L 130 -90 L 210 -10 L 210 -210 L 10 -210 L 90 -130 z" stroke-linecap="round" />
</g>
<g transform="matrix(1 0 0 1 320 320)" id="knqCZok9hZXNljM-lvfWS"  >
<path style="fill: #fab00c; fill-rule: nonzero; opacity: 1;" vector-effect="non-scaling-stroke"  transform=" translate(0, 0)" d="M 0 -260 L 0 -220 L -220 -220 L -220 220 L 220 220 L 220 0 L 260 0 L 260 260 L -260 260 L -260 -260 z" stroke-linecap="round" />
</g>
</svg>